<svg width="1370" height="1413" viewBox="0 0 1370 1413" fill="none" xmlns="http://www.w3.org/2000/svg">
<g filter="url(#filter0_d_36326_30)">
<circle cx="874.5" cy="338.5" r="852.5" fill="white" fill-opacity="0.5"/>
</g>
<g filter="url(#filter1_bd_36326_30)">
<circle cx="874.499" cy="338.5" r="618.088" fill="white" fill-opacity="0.3"/>
<circle cx="874.499" cy="338.5" r="618.088" fill="url(#paint0_linear_36326_30)"/>
<circle cx="874.499" cy="338.5" r="617.088" stroke="url(#paint1_linear_36326_30)" stroke-width="2"/>
</g>
<g filter="url(#filter2_bd_36326_30)">
<circle cx="874.5" cy="338.5" r="453.798" fill="white" fill-opacity="0.3"/>
<circle cx="874.5" cy="338.5" r="453.798" fill="url(#paint2_linear_36326_30)"/>
<circle cx="874.5" cy="338.5" r="452.798" stroke="url(#paint3_linear_36326_30)" stroke-width="2"/>
</g>
<g filter="url(#filter3_bd_36326_30)">
<circle cx="874.499" cy="338.5" r="313.552" fill="white" fill-opacity="0.3"/>
<circle cx="874.499" cy="338.5" r="313.552" fill="url(#paint4_linear_36326_30)"/>
<circle cx="874.499" cy="338.5" r="312.552" stroke="url(#paint5_linear_36326_30)" stroke-width="2"/>
</g>
<g filter="url(#filter4_bd_36326_30)">
<circle cx="874.5" cy="338.5" r="199.692" fill="white" fill-opacity="0.3"/>
<circle cx="874.5" cy="338.5" r="199.692" fill="url(#paint6_linear_36326_30)"/>
<circle cx="874.5" cy="338.5" r="198.692" stroke="url(#paint7_linear_36326_30)" stroke-width="2"/>
</g>
<path d="M1019.07 329.121H750.526V442.245H1019.07V329.121Z" fill="#38BFF2" stroke="#263238" stroke-linecap="round" stroke-linejoin="round"/>
<path d="M781.4 335.968H756.138V349.953H781.4V335.968Z" fill="white" stroke="#263238" stroke-miterlimit="10"/>
<path d="M1012.85 404.157H973.06V418.142H1012.85V404.157Z" fill="white" stroke="#263238" stroke-miterlimit="10"/>
<path d="M1012.86 353.435H988.299V367.419H1012.86V353.435Z" fill="white" stroke="#263238" stroke-miterlimit="10"/>
<path d="M781.4 386.912H756.138V400.897H781.4V386.912Z" fill="white" stroke="#263238" stroke-miterlimit="10"/>
<path d="M776.592 370.063H756.138V384.047H776.592V370.063Z" fill="white" stroke="#263238" stroke-miterlimit="10"/>
<path d="M770.12 353.016H756.138V367H770.12V353.016Z" fill="white" stroke="#263238" stroke-miterlimit="10"/>
<path d="M787.978 353.016H773.996V367H787.978V353.016Z" fill="white" stroke="#263238" stroke-miterlimit="10"/>
<path d="M805.825 353.016H791.843V367H805.825V353.016Z" fill="white" stroke="#263238" stroke-miterlimit="10"/>
<path d="M823.672 353.016H809.69V367H823.672V353.016Z" fill="white" stroke="#263238" stroke-miterlimit="10"/>
<path d="M841.531 353.016H827.549V367H841.531V353.016Z" fill="white" stroke="#263238" stroke-miterlimit="10"/>
<path d="M859.377 353.016H845.396V367H859.377V353.016Z" fill="white" stroke="#263238" stroke-miterlimit="10"/>
<path d="M877.224 353.016H863.242V367H877.224V353.016Z" fill="white" stroke="#263238" stroke-miterlimit="10"/>
<path d="M895.083 353.016H881.101V367H895.083V353.016Z" fill="white" stroke="#263238" stroke-miterlimit="10"/>
<path d="M912.93 353.016H898.948V367H912.93V353.016Z" fill="white" stroke="#263238" stroke-miterlimit="10"/>
<path d="M930.788 353.016H916.807V367H930.788V353.016Z" fill="white" stroke="#263238" stroke-miterlimit="10"/>
<path d="M948.635 353.016H934.653V367H948.635V353.016Z" fill="white" stroke="#263238" stroke-miterlimit="10"/>
<path d="M966.482 353.016H952.5V367H966.482V353.016Z" fill="white" stroke="#263238" stroke-miterlimit="10"/>
<path d="M984.34 353.016H970.358V367H984.34V353.016Z" fill="white" stroke="#263238" stroke-miterlimit="10"/>
<path d="M770.12 421.402H756.138V435.387H770.12V421.402Z" fill="white" stroke="#263238" stroke-miterlimit="10"/>
<path d="M787.978 421.402H773.996V435.387H787.978V421.402Z" fill="white" stroke="#263238" stroke-miterlimit="10"/>
<path d="M805.825 421.402H791.843V435.387H805.825V421.402Z" fill="white" stroke="#263238" stroke-miterlimit="10"/>
<path d="M826.757 421.402H809.69V435.387H826.757V421.402Z" fill="white" stroke="#263238" stroke-miterlimit="10"/>
<path d="M916.015 421.402H830.622V435.387H916.015V421.402Z" fill="white" stroke="#263238" stroke-miterlimit="10"/>
<path d="M976.552 421.402H962.57V435.387H976.552V421.402Z" fill="white" stroke="#263238" stroke-miterlimit="10"/>
<path d="M994.434 421.402H980.452V435.387H994.434V421.402Z" fill="white" stroke="#263238" stroke-miterlimit="10"/>
<path d="M941.219 421.402H919.507V435.387H941.219V421.402Z" fill="white" stroke="#263238" stroke-miterlimit="10"/>
<path d="M1012.85 421.402H998.87V435.387H1012.85V421.402Z" fill="white" stroke="#263238" stroke-miterlimit="10"/>
<path d="M794.544 370.063H780.562V384.047H794.544V370.063Z" fill="white" stroke="#263238" stroke-miterlimit="10"/>
<path d="M812.391 370.063H798.409V384.047H812.391V370.063Z" fill="white" stroke="#263238" stroke-miterlimit="10"/>
<path d="M830.249 370.063H816.268V384.047H830.249V370.063Z" fill="white" stroke="#263238" stroke-miterlimit="10"/>
<path d="M848.096 370.063H834.114V384.047H848.096V370.063Z" fill="white" stroke="#263238" stroke-miterlimit="10"/>
<path d="M865.955 370.063H851.974V384.047H865.955V370.063Z" fill="white" stroke="#263238" stroke-miterlimit="10"/>
<path d="M883.802 370.063H869.82V384.047H883.802V370.063Z" fill="white" stroke="#263238" stroke-miterlimit="10"/>
<path d="M901.649 370.063H887.667V384.047H901.649V370.063Z" fill="white" stroke="#263238" stroke-miterlimit="10"/>
<path d="M919.507 370.063H905.525V384.047H919.507V370.063Z" fill="white" stroke="#263238" stroke-miterlimit="10"/>
<path d="M937.354 370.063H923.372V384.047H937.354V370.063Z" fill="white" stroke="#263238" stroke-miterlimit="10"/>
<path d="M955.202 370.063H941.22V384.047H955.202V370.063Z" fill="white" stroke="#263238" stroke-miterlimit="10"/>
<path d="M973.06 370.063H959.078V384.047H973.06V370.063Z" fill="white" stroke="#263238" stroke-miterlimit="10"/>
<path d="M990.907 370.063H976.925V384.047H990.907V370.063Z" fill="white" stroke="#263238" stroke-miterlimit="10"/>
<path d="M1012.85 370.063V401.106H998.869V384.047H994.771V370.063H1012.85Z" fill="white" stroke="#263238" stroke-miterlimit="10"/>
<path d="M798.642 387.11H784.66V401.095H798.642V387.11Z" fill="white" stroke="#263238" stroke-miterlimit="10"/>
<path d="M816.489 387.11H802.507V401.095H816.489V387.11Z" fill="white" stroke="#263238" stroke-miterlimit="10"/>
<path d="M834.336 387.11H820.354V401.095H834.336V387.11Z" fill="white" stroke="#263238" stroke-miterlimit="10"/>
<path d="M852.195 387.11H838.213V401.095H852.195V387.11Z" fill="white" stroke="#263238" stroke-miterlimit="10"/>
<path d="M870.041 387.11H856.06V401.095H870.041V387.11Z" fill="white" stroke="#263238" stroke-miterlimit="10"/>
<path d="M887.9 387.11H873.918V401.095H887.9V387.11Z" fill="white" stroke="#263238" stroke-miterlimit="10"/>
<path d="M905.746 387.11H891.765V401.095H905.746V387.11Z" fill="white" stroke="#263238" stroke-miterlimit="10"/>
<path d="M923.594 387.11H909.612V401.095H923.594V387.11Z" fill="white" stroke="#263238" stroke-miterlimit="10"/>
<path d="M941.453 387.11H927.471V401.095H941.453V387.11Z" fill="white" stroke="#263238" stroke-miterlimit="10"/>
<path d="M959.299 387.11H945.317V401.095H959.299V387.11Z" fill="white" stroke="#263238" stroke-miterlimit="10"/>
<path d="M977.146 387.11H963.164V401.095H977.146V387.11Z" fill="white" stroke="#263238" stroke-miterlimit="10"/>
<path d="M995.004 387.11H981.022V401.095H995.004V387.11Z" fill="white" stroke="#263238" stroke-miterlimit="10"/>
<path d="M791.052 404.157H777.07V418.142H791.052V404.157Z" fill="white" stroke="#263238" stroke-miterlimit="10"/>
<path d="M808.898 404.157H794.917V418.142H808.898V404.157Z" fill="white" stroke="#263238" stroke-miterlimit="10"/>
<path d="M826.757 404.157H812.775V418.142H826.757V404.157Z" fill="white" stroke="#263238" stroke-miterlimit="10"/>
<path d="M844.604 404.157H830.622V418.142H844.604V404.157Z" fill="white" stroke="#263238" stroke-miterlimit="10"/>
<path d="M862.462 404.157H848.48V418.142H862.462V404.157Z" fill="white" stroke="#263238" stroke-miterlimit="10"/>
<path d="M880.309 404.157H866.327V418.142H880.309V404.157Z" fill="white" stroke="#263238" stroke-miterlimit="10"/>
<path d="M898.157 404.157H884.175V418.142H898.157V404.157Z" fill="white" stroke="#263238" stroke-miterlimit="10"/>
<path d="M916.015 404.157H902.033V418.142H916.015V404.157Z" fill="white" stroke="#263238" stroke-miterlimit="10"/>
<path d="M933.862 404.157H919.88V418.142H933.862V404.157Z" fill="white" stroke="#263238" stroke-miterlimit="10"/>
<path d="M951.708 404.157H937.727V418.142H951.708V404.157Z" fill="white" stroke="#263238" stroke-miterlimit="10"/>
<path d="M969.567 404.157H955.585V418.142H969.567V404.157Z" fill="white" stroke="#263238" stroke-miterlimit="10"/>
<path d="M798.642 336.807H784.66V350.791H798.642V336.807Z" fill="white" stroke="#263238" stroke-miterlimit="10"/>
<path d="M816.489 336.807H802.507V350.791H816.489V336.807Z" fill="white" stroke="#263238" stroke-miterlimit="10"/>
<path d="M834.336 336.807H820.354V350.791H834.336V336.807Z" fill="white" stroke="#263238" stroke-miterlimit="10"/>
<path d="M852.195 336.807H838.213V350.791H852.195V336.807Z" fill="white" stroke="#263238" stroke-miterlimit="10"/>
<path d="M870.041 336.807H856.06V350.791H870.041V336.807Z" fill="white" stroke="#263238" stroke-miterlimit="10"/>
<path d="M887.9 336.807H873.918V350.791H887.9V336.807Z" fill="white" stroke="#263238" stroke-miterlimit="10"/>
<path d="M905.746 336.807H891.765V350.791H905.746V336.807Z" fill="white" stroke="#263238" stroke-miterlimit="10"/>
<path d="M923.594 336.807H909.612V350.791H923.594V336.807Z" fill="white" stroke="#263238" stroke-miterlimit="10"/>
<path d="M941.453 336.807H927.471V350.791H941.453V336.807Z" fill="white" stroke="#263238" stroke-miterlimit="10"/>
<path d="M959.299 336.807H945.317V350.791H959.299V336.807Z" fill="white" stroke="#263238" stroke-miterlimit="10"/>
<path d="M977.146 336.807H963.164V350.791H977.146V336.807Z" fill="white" stroke="#263238" stroke-miterlimit="10"/>
<path d="M995.004 336.807H981.022V350.791H995.004V336.807Z" fill="white" stroke="#263238" stroke-miterlimit="10"/>
<path d="M1012.85 336.807H998.87V350.791H1012.85V336.807Z" fill="white" stroke="#263238" stroke-miterlimit="10"/>
<path d="M773.077 404.157H756.138V418.142H773.077V404.157Z" fill="white" stroke="#263238" stroke-miterlimit="10"/>
<path d="M750.526 329.843L756.138 327.969H1015.42L1019.11 329.82L750.526 329.843Z" fill="#263238"/>
<path d="M985.68 463.869L985.819 412.39C986.378 410.317 986.832 402.678 988.02 397.357C990.045 388.437 982.082 377.678 981.523 377.329C979.288 375.931 974.538 375.955 974.538 375.955C974.538 375.955 969.882 370.645 965.725 368.968C962.869 367.954 959.825 367.576 956.808 367.862C953.608 365.219 950.039 363.057 946.214 361.446C944.717 360.88 943.093 360.737 941.52 361.033C939.947 361.328 938.486 362.052 937.296 363.123L932.057 371.274C931.292 372.43 930.945 373.814 931.074 375.195C931.203 376.576 931.801 377.871 932.768 378.866C935.259 381.311 938.449 380.17 940.055 380.17C942.279 380.17 943.117 377.655 943.117 377.655C943.117 377.655 943.664 390.754 943.117 392.431C942.547 394.096 938.379 397.997 938.379 397.997L924.409 379.564C919.613 373.056 915.416 366.126 911.87 358.861C911.466 357.975 910.937 357.151 910.299 356.416C907.854 353.656 902.627 352.841 901.265 357.964C900.93 359.603 901.006 361.299 901.486 362.901C907.307 380.112 914.734 393.118 921.498 406.672C925.515 414.718 924.025 414.625 926.027 418.258C925.794 418.421 925.91 418.724 925.654 418.875C924.676 422.788 923.99 426.712 923 430.624C922.18 425.713 920.679 420.939 918.541 416.442C919.106 413.717 919.313 410.93 919.158 408.151C918.983 405.343 917.732 402.711 915.666 400.803C914.508 399.867 913.088 399.314 911.603 399.22C910.539 399.15 909.488 399.484 908.659 400.156C907.83 400.827 907.285 401.786 907.132 402.841C906.9 404.971 906.511 407.08 905.968 409.152C905.078 411.858 904.004 414.5 902.755 417.059C902.755 422.264 905.968 421.414 908.308 442.304C910.124 458.606 931.079 469.33 942.488 481.079L956 521C973 513 980 509 994.5 498L985.68 463.869Z" fill="white"/>
<path d="M915.956 435.69C916.096 435.434 916.212 435.177 916.329 434.91C916.205 434.997 916.106 435.114 916.04 435.251C915.975 435.388 915.946 435.539 915.956 435.69V435.69Z" fill="#92E3A9"/>
<path d="M949.519 363.658C947.922 362.409 946.022 361.606 944.013 361.33L949.519 363.658Z" fill="#92E3A9"/>
<path d="M943.314 369.108L943.384 369.69C943.425 369.494 943.401 369.289 943.314 369.108V369.108Z" fill="#92E3A9"/>
<g opacity="0.5">
<path opacity="0.5" d="M915.956 435.69C916.096 435.434 916.212 435.177 916.329 434.91C916.205 434.997 916.106 435.114 916.04 435.251C915.975 435.388 915.946 435.539 915.956 435.69V435.69Z" fill="white"/>
<path opacity="0.5" d="M949.519 363.658C947.922 362.409 946.022 361.606 944.013 361.33L949.519 363.658Z" fill="white"/>
<path opacity="0.5" d="M943.314 369.108L943.384 369.69C943.425 369.494 943.4 369.289 943.314 369.108V369.108Z" fill="white"/>
<path opacity="0.5" d="M949.729 419.609C949.205 418.305 946.667 414.555 945.188 417.152Z" fill="white"/>
</g>
<path d="M906.445 413.344C905.092 414.411 903.937 415.708 903.034 417.175L906.445 413.344Z" fill="white"/>
<path d="M956 521L942.605 481.044C931.196 469.295 910.24 458.547 908.424 442.269C906.096 421.379 902.871 422.229 902.871 417.024C904.121 414.465 905.194 411.823 906.084 409.118C906.627 407.045 907.016 404.936 907.248 402.806C907.401 401.751 907.947 400.792 908.775 400.121C909.604 399.449 910.655 399.115 911.719 399.185C913.205 399.279 914.624 399.832 915.782 400.769C917.849 402.677 919.1 405.308 919.274 408.116C919.429 410.895 919.222 413.682 918.657 416.407C920.796 420.904 922.296 425.678 923.116 430.59C924.106 426.677 924.793 422.753 925.771 418.84C926.027 418.689 925.91 418.386 926.143 418.223C924.141 414.59 925.631 414.73 921.614 406.637C914.851 393.083 907.435 380.077 901.602 362.867C901.122 361.264 901.046 359.568 901.381 357.929C902.743 352.806 907.97 353.621 910.415 356.381C911.053 357.116 911.582 357.94 911.987 358.826C915.533 366.092 919.729 373.021 924.525 379.529L938.495 397.962C938.495 397.962 942.663 394.061 943.233 392.396C943.78 390.72 943.233 377.62 943.233 377.62C943.233 377.62 942.395 380.135 940.172 380.135C938.565 380.135 935.375 381.299 932.884 378.831C931.908 377.853 931.294 376.571 931.143 375.197C930.993 373.824 931.315 372.44 932.057 371.274L937.261 363.123C938.45 362.052 939.912 361.328 941.485 361.033C943.058 360.737 944.682 360.88 946.179 361.446C950.004 363.057 953.573 365.219 956.773 367.862C959.79 367.576 962.834 367.954 965.69 368.968C969.881 370.657 974.503 375.955 974.503 375.955C974.503 375.955 979.241 375.955 981.488 377.329C982.047 377.678 990.01 388.437 987.984 397.357C986.82 402.678 986.343 410.317 985.784 412.39L985.644 463.869L995 498" stroke="#263238" stroke-miterlimit="10"/>
<path d="M958.088 369.678C960.138 377.273 961.203 385.1 961.255 392.967C961.189 394.285 961.33 395.605 961.674 396.879C961.855 397.513 962.194 398.09 962.661 398.554C963.128 399.019 963.706 399.356 964.34 399.534" stroke="#263238" stroke-miterlimit="10"/>
<path d="M974.55 377.329C978.043 384.618 974.469 400.897 974.725 402.049C974.835 402.629 975.067 403.178 975.406 403.66C975.746 404.142 976.184 404.546 976.692 404.844" stroke="#263238" stroke-miterlimit="10"/>
<path d="M944.537 368.677C944.13 371.006 943.792 373.684 943.373 376.001C942.018 374.835 940.909 373.411 940.109 371.811C939.31 370.212 938.836 368.47 938.716 366.686" stroke="#263238" stroke-miterlimit="10"/>
<path d="M922.231 430.811L919.717 431.917" stroke="#263238" stroke-miterlimit="10"/>
<path d="M922.872 432.825C922.47 434.769 922.47 436.774 922.872 438.717" stroke="#263238" stroke-miterlimit="10"/>
<path d="M937.587 411.062L940.369 416.081" stroke="#263238" stroke-miterlimit="10"/>
<path d="M942.942 392.699L945.713 388.787" stroke="#263238" stroke-miterlimit="10"/>
<path d="M981.908 411.062L981.069 414.136" stroke="#263238" stroke-miterlimit="10"/>
<path d="M975.132 402.713C975.908 400.105 976.727 397.497 977.588 394.888" stroke="#263238" stroke-miterlimit="10"/>
<path d="M983.281 388.798C984.018 388.412 984.878 388.334 985.672 388.581C986.466 388.827 987.13 389.379 987.519 390.114" stroke="#263238" stroke-miterlimit="10"/>
<path d="M966.599 375.431C967.565 375.159 968.583 375.134 969.561 375.358C970.54 375.582 971.446 376.047 972.198 376.712" stroke="#263238" stroke-miterlimit="10"/>
<path d="M914.746 383.197C915.649 382.207 916.774 381.443 918.028 380.97C919.282 380.496 920.631 380.326 921.964 380.473" stroke="#263238" stroke-miterlimit="10"/>
<path d="M904.233 361.236C905.065 360.636 906.008 360.206 907.007 359.97C908.005 359.734 909.041 359.698 910.054 359.862" stroke="#263238" stroke-miterlimit="10"/>
<path d="M906.445 413.344C905.092 414.411 903.937 415.708 903.034 417.175" stroke="#263238" stroke-miterlimit="10"/>
<path d="M907.517 408.046C909.356 406.742 912.29 409.676 913.978 408.174C914.277 407.837 914.486 407.43 914.586 406.99C914.685 406.55 914.673 406.093 914.548 405.659C914.3 404.793 914.186 403.894 914.211 402.993" stroke="#263238" stroke-miterlimit="10"/>
<path d="M959.427 399.977C961.667 404.628 962.123 409.94 960.707 414.905" stroke="#263238" stroke-miterlimit="10"/>
<path d="M972.955 407.161C973.317 409.363 972.906 411.622 971.791 413.554" stroke="#263238" stroke-miterlimit="10"/>
<path d="M855.949 406.507C855.448 404.178 852.177 404.539 852.177 404.539C841.175 405.18 839.697 422.425 839.697 422.425L835.75 434.244L834.586 416.475L834.702 393.571C834.702 393.571 838.032 371.656 836.553 368.221C836.216 367.274 835.601 366.45 834.789 365.856C833.978 365.262 833.006 364.926 832.001 364.891C825.598 363.284 825.226 372.518 825.226 372.518L819.824 391.358L817.542 411.677L815.703 410.688C815.703 410.688 814.83 389.134 815.202 388.773C815.575 388.412 817.787 373.868 817.787 373.868C817.787 373.868 818.951 371.167 820.499 367.72C820.937 366.752 821.163 365.703 821.163 364.64C821.163 363.578 820.937 362.528 820.499 361.56C817.903 356.262 812.501 358.731 811.384 361.56C810.072 364.434 808.595 367.23 806.96 369.933L800.79 386.805C801.022 390.625 798.834 409.453 798.834 409.453L796.61 408.452L793.036 397.39L795.76 386.06C795.76 386.06 801.709 379.539 800.673 375.697C799.637 371.854 794.643 372.995 794.643 372.995L784.561 385.047H781.592L774.607 393.92C771.436 403.436 770.87 413.628 772.966 423.438L774.572 430.925V479.33C774.572 479.33 769.787 487.086 769.787 487.819C769.787 488.157 765.259 496.373 762.5 504C774.522 511.861 787.5 518.5 803 525C807.412 512.576 814.934 495.598 817.787 492.5C823.445 486.34 834.528 474.521 834.528 474.521C834.528 474.521 847.112 454.295 848.591 447.565C849.755 442.046 852.759 432.032 853.783 428.596C854.021 427.816 854.116 427 854.063 426.186C853.981 424.37 853.807 420.841 853.807 417.732C853.807 413.238 856.426 408.801 855.949 406.507Z" fill="white"/>
<path d="M762.5 504C766 496 770.911 484.84 770.911 484.502C770.911 483.769 775.696 476.014 775.696 476.014V427.62L774.089 420.18C771.994 410.395 772.549 400.229 775.696 390.731L782.681 381.858H785.65L795.731 369.807C795.731 369.807 800.784 368.642 801.762 372.508C802.74 376.374 796.849 382.848 796.849 382.848L794.125 394.178L797.699 405.24L799.922 406.241C799.922 406.241 802.111 387.413 801.878 383.593L808.048 366.721C809.683 364.018 811.16 361.222 812.472 358.349C813.636 355.519 818.992 353.05 821.588 358.349C822.025 359.316 822.252 360.366 822.252 361.428C822.252 362.491 822.025 363.541 821.588 364.508C820.098 368.002 818.875 370.657 818.875 370.657C818.875 370.657 816.663 385.189 816.291 385.561C815.918 385.934 816.791 407.476 816.791 407.476L818.631 408.465L820.854 388.146L826.256 369.306C826.256 369.306 826.629 360.072 833.032 361.679C834.037 361.714 835.008 362.05 835.82 362.644C836.631 363.238 837.246 364.062 837.584 365.009C839.062 368.444 835.733 390.359 835.733 390.359L835.616 413.263L836.78 431.032L840.727 419.213C840.727 419.213 842.205 401.968 853.207 401.328C853.207 401.328 856.478 400.99 856.979 403.295C857.48 405.601 854.837 410.026 854.837 414.462C854.837 417.571 855.011 421.099 855.093 422.916C855.146 423.73 855.051 424.546 854.814 425.326C853.789 428.761 850.844 438.775 849.621 444.295C848.143 451.025 835.558 471.251 835.558 471.251C835.558 471.251 824.475 483.07 818.817 489.23C815.965 492.327 807.412 512.576 803 525" stroke="#263238" stroke-miterlimit="10"/>
<path d="M799.76 408.023C800.069 409.18 800.078 410.396 799.787 411.557C799.496 412.719 798.913 413.787 798.095 414.66" fill="white"/>
<path d="M799.76 408.023C800.069 409.18 800.078 410.396 799.787 411.557C799.496 412.719 798.913 413.787 798.095 414.66" stroke="#263238" stroke-miterlimit="10"/>
<path d="M780.981 424.302C782.576 421.821 784.136 418.421 783.706 415.51C782.867 409.793 780.213 403.214 781.435 397.555C782.181 393.945 782.937 390.324 783.682 386.714" fill="white"/>
<path d="M780.981 424.302C782.576 421.821 784.136 418.421 783.706 415.51C782.867 409.793 780.213 403.214 781.435 397.555C782.181 393.945 782.937 390.324 783.682 386.714" stroke="#263238" stroke-miterlimit="10"/>
<path d="M827.397 370.296C829.305 369.793 831.31 369.793 833.218 370.296C833.218 369.76 833.218 369.224 833.218 368.677" stroke="#263238" stroke-miterlimit="10"/>
<path d="M812.146 363.018C812.707 363.405 813.364 363.63 814.044 363.668C814.725 363.707 815.402 363.557 816.003 363.236C816.604 362.915 817.106 362.435 817.452 361.848C817.798 361.261 817.977 360.59 817.967 359.909" stroke="#263238" stroke-miterlimit="10"/>
<path d="M854.185 403.447C852.576 403.861 851.161 404.824 850.186 406.169C849.21 407.515 848.735 409.159 848.841 410.818L851.694 411.668" stroke="#263238" stroke-miterlimit="10"/>
<path d="M816.722 404.867C816.85 406.824 816.605 411.493 816.722 413.438Z" fill="white"/>
<path d="M816.722 404.867C816.85 406.824 816.605 411.493 816.722 413.438" stroke="#263238" stroke-miterlimit="10"/>
<path d="M818.863 407.569C818.631 410.775 818.394 413.977 818.153 417.175C818.153 416.768 818.153 416.36 818.153 415.953" fill="white"/>
<path d="M818.863 407.569C818.631 410.775 818.394 413.977 818.153 417.175C818.153 416.768 818.153 416.36 818.153 415.953" stroke="#263238" stroke-miterlimit="10"/>
<path d="M836.594 434.56C837.439 438.099 837.053 441.82 835.5 445.11Z" fill="white"/>
<path d="M836.594 434.56C837.439 438.099 837.053 441.82 835.5 445.11" stroke="#263238" stroke-miterlimit="10"/>
<path d="M807.117 417.781C804.58 420.564 804.952 427.236 806.745 430.916" stroke="#263238" stroke-miterlimit="10"/>
<path d="M825.872 422.369C825.887 425.497 824.784 428.528 822.764 430.916" stroke="#263238" stroke-miterlimit="10"/>
<path d="M788.631 419.108C788.209 421.946 788.825 424.84 790.365 427.259" stroke="#263238" stroke-miterlimit="10"/>
<path d="M777.826 427.807C777.715 430.021 778.346 432.209 779.619 434.025" stroke="#263238" stroke-miterlimit="10"/>
<path d="M792.634 374.115C793.303 373.81 794.047 373.71 794.772 373.828C795.498 373.946 796.172 374.277 796.709 374.779L798.176 372.869" stroke="#263238" stroke-miterlimit="10"/>
<path d="M804.579 382.673C805.561 382.085 806.721 381.865 807.849 382.055C808.978 382.245 810.003 382.832 810.738 383.71" stroke="#263238" stroke-miterlimit="10"/>
<path d="M823.229 388.495C824.276 388.029 825.412 387.799 826.557 387.823C827.702 387.847 828.828 388.125 829.854 388.635" stroke="#263238" stroke-miterlimit="10"/>
<path d="M781.726 398.265C782.346 397.229 783.25 396.392 784.332 395.855C785.413 395.319 786.626 395.104 787.826 395.237" stroke="#263238" stroke-miterlimit="10"/>
<path d="M773.915 409.397C773.953 408.643 774.247 407.925 774.749 407.362C775.251 406.798 775.93 406.424 776.674 406.3" stroke="#263238" stroke-miterlimit="10"/>
<path d="M1079.91 130.727L689.325 132.566L695.228 123.717C696.621 121.611 698.513 119.883 700.734 118.684C702.956 117.486 705.439 116.855 707.964 116.847H1061.36C1063.65 116.845 1065.91 117.357 1067.97 118.344C1070.04 119.332 1071.85 120.77 1073.28 122.552L1079.91 130.727Z" fill="white" stroke="#263238" stroke-linecap="round" stroke-linejoin="round"/>
<path d="M891.404 189.286H870.006C848.049 189.286 830.249 207.089 830.249 229.051V250.453C830.249 272.415 848.049 290.218 870.006 290.218H891.404C913.361 290.218 931.16 272.415 931.16 250.453V229.051C931.16 207.089 913.361 189.286 891.404 189.286Z" fill="#757575" stroke="#263238" stroke-linecap="round" stroke-linejoin="round"/>
<path d="M848.585 248.287V262.633C848.585 264.795 849.444 266.868 850.972 268.396C852.5 269.925 854.573 270.784 856.734 270.784H905.944C908.096 270.784 910.16 269.933 911.686 268.417C913.213 266.901 914.078 264.843 914.094 262.691C914.163 256.228 914.501 248.287 914.501 248.287H848.585Z" fill="#999999" stroke="#263238" stroke-linecap="round" stroke-linejoin="round"/>
<path d="M1028.68 253.073H740.899C739.419 253.076 737.972 252.634 736.747 251.803C735.521 250.972 734.575 249.792 734.03 248.415L689.64 134.429C689.37 133.74 689.274 132.996 689.357 132.261C689.441 131.526 689.704 130.822 690.121 130.212C690.539 129.601 691.1 129.102 691.754 128.757C692.409 128.413 693.138 128.233 693.877 128.235H1075.73C1076.46 128.243 1077.19 128.429 1077.83 128.777C1078.48 129.126 1079.03 129.626 1079.44 130.236C1079.85 130.845 1080.11 131.545 1080.19 132.275C1080.27 133.006 1080.18 133.745 1079.91 134.429L1035.52 248.38C1034.98 249.758 1034.04 250.942 1032.82 251.779C1031.6 252.615 1030.16 253.066 1028.68 253.073Z" fill="white" stroke="#263238" stroke-linecap="round" stroke-linejoin="round"/>
<path d="M1030.83 243.14H738.069L697.789 135.454H1070.92L1030.83 243.14Z" fill="white"/>
<path d="M914.163 252.922H848.899V257.393H914.163V252.922Z" fill="#263238"/>
<path d="M988.066 238.529H781.331C780.167 238.529 779.119 238.017 778.909 237.365L749.502 143.92C749.176 142.872 750.096 142.022 751.563 142.022H1017.83C1019.3 142.022 1020.22 142.872 1019.88 143.92L990.488 237.365C990.267 238.005 989.196 238.529 988.066 238.529Z" fill="#38BFF2"/>
<path d="M985.994 236.398H783.426C783.046 236.401 782.676 236.279 782.371 236.052C782.067 235.826 781.844 235.505 781.738 235.141L757.803 156.589C757.713 156.321 757.69 156.036 757.733 155.757C757.776 155.478 757.886 155.214 758.052 154.986C758.219 154.758 758.437 154.573 758.689 154.447C758.941 154.321 759.22 154.256 759.502 154.26H1009.89C1010.18 154.256 1010.46 154.321 1010.71 154.447C1010.96 154.573 1011.18 154.758 1011.34 154.986C1011.51 155.214 1011.62 155.478 1011.66 155.757C1011.71 156.036 1011.68 156.321 1011.59 156.589L987.682 235.141C987.574 235.504 987.351 235.823 987.047 236.05C986.743 236.277 986.373 236.399 985.994 236.398V236.398Z" fill="#263238"/>
<path d="M811.552 174.684H772.704C771.737 174.684 771.109 175.196 771.295 175.848C771.483 176.223 771.778 176.534 772.143 176.742C772.507 176.949 772.925 177.043 773.344 177.013H811.971C812.926 177.013 813.601 176.5 813.496 175.848C813.392 175.196 812.507 174.684 811.552 174.684Z" fill="white"/>
<path d="M812.844 181.775H779.805C778.862 181.775 778.245 182.276 778.408 182.939C778.586 183.31 778.87 183.619 779.225 183.826C779.58 184.034 779.989 184.13 780.399 184.104H813.31C814.253 184.104 814.917 183.603 814.812 182.939C814.707 182.276 813.787 181.775 812.844 181.775Z" fill="white"/>
<path opacity="0.5" d="M814.102 188.622H776.616C775.684 188.622 775.079 189.099 775.242 189.693C775.429 190.049 775.716 190.342 776.068 190.536C776.419 190.731 776.82 190.818 777.221 190.788H814.475C815.394 190.788 816.058 190.31 815.953 189.716C815.848 189.123 815.034 188.622 814.102 188.622Z" fill="white"/>
<path d="M815.313 195.236H793.298C792.39 195.236 791.762 195.702 791.901 196.272C792.041 196.843 792.891 197.308 793.799 197.308H815.697C816.605 197.308 817.257 196.843 817.152 196.272C817.048 195.702 816.233 195.236 815.313 195.236Z" fill="white"/>
<path d="M816.489 201.617H780.259C779.375 201.617 778.769 202.071 778.932 202.618C779.095 203.166 779.933 203.62 780.83 203.62H816.92C817.804 203.62 818.445 203.177 818.352 202.618C818.258 202.059 817.385 201.617 816.489 201.617Z" fill="white"/>
<path d="M817.618 207.8H788.373C787.489 207.8 786.895 208.231 787.035 208.766C787.174 209.302 788.001 209.733 788.874 209.733H817.978C818.852 209.733 819.48 209.302 819.387 208.766C819.294 208.231 818.502 207.8 817.618 207.8Z" fill="white"/>
<path d="M818.713 213.773H789.946C789.072 213.773 788.49 214.193 788.63 214.705C788.77 215.217 789.573 215.648 790.435 215.648H819.062C819.923 215.648 820.54 215.229 820.447 214.705C820.354 214.181 819.586 213.773 818.713 213.773Z" fill="white"/>
<path d="M819.772 219.549H788.339C787.489 219.549 786.907 219.957 787.047 220.457C787.186 220.958 787.978 221.366 788.828 221.366H820.063C820.913 221.366 821.53 220.958 821.437 220.457C821.343 219.957 820.633 219.549 819.772 219.549Z" fill="white"/>
<path opacity="0.5" d="M820.808 225.15H800.504C799.666 225.15 799.084 225.546 799.2 226.035C799.317 226.524 800.097 226.908 800.923 226.908H821.099C821.937 226.908 822.542 226.512 822.461 226.035C822.379 225.557 821.646 225.15 820.808 225.15Z" fill="white"/>
<path opacity="0.5" d="M810.202 167.325H781.249C780.271 167.325 779.619 167.86 779.794 168.489C779.981 168.867 780.278 169.18 780.645 169.388C781.013 169.595 781.434 169.688 781.855 169.653H810.633C811.611 169.653 812.298 169.118 812.181 168.489C812.019 168.109 811.74 167.79 811.384 167.581C811.027 167.371 810.613 167.281 810.202 167.325V167.325Z" fill="white"/>
<path d="M808.794 159.698H768.49C767.5 159.698 766.848 160.245 767.046 160.932C767.241 161.327 767.549 161.654 767.93 161.874C768.311 162.094 768.749 162.196 769.188 162.166H809.259C810.237 162.166 810.947 161.619 810.819 160.932C810.691 160.245 809.818 159.698 808.794 159.698Z" fill="white"/>
<path d="M821.798 230.576H788.397C787.571 230.576 787.012 230.96 787.14 231.426C787.268 231.892 788.048 232.276 788.874 232.276H822.112C822.927 232.276 823.532 231.892 823.451 231.426C823.369 230.96 822.624 230.576 821.798 230.576Z" fill="white"/>
<path opacity="0.5" d="M825.197 177.269H832.73L832.357 174.393H824.767L825.197 177.269Z" fill="white"/>
<path opacity="0.5" d="M826.245 184.267H833.649L833.288 181.496H825.826L826.245 184.267Z" fill="white"/>
<path opacity="0.5" d="M827.258 191.032H834.534L834.185 188.354H826.862L827.258 191.032Z" fill="white"/>
<path opacity="0.5" d="M828.247 197.565H835.395L835.046 194.968H827.852L828.247 197.565Z" fill="white"/>
<path opacity="0.5" d="M829.19 203.864H836.222L835.884 201.372H828.818L829.19 203.864Z" fill="white"/>
<path opacity="0.5" d="M830.11 209.966H837.013L836.699 207.555H829.737L830.11 209.966Z" fill="white"/>
<path opacity="0.5" d="M830.995 215.881H837.794L837.491 213.529H830.646L830.995 215.881Z" fill="white"/>
<path opacity="0.5" d="M831.844 221.587H838.538L838.247 219.328H831.506L831.844 221.587Z" fill="white"/>
<path opacity="0.5" d="M832.682 227.129H839.272L838.981 224.929H832.356L832.682 227.129Z" fill="white"/>
<path opacity="0.5" d="M824.103 170.014H831.775L831.39 167.022H823.66L824.103 170.014Z" fill="white"/>
<path opacity="0.5" d="M822.973 162.481H830.785L830.389 159.383H822.508L822.973 162.481Z" fill="white"/>
<path opacity="0.5" d="M833.486 232.486H839.97L839.691 230.355H833.171L833.486 232.486Z" fill="white"/>
<path d="M873.196 220.457C873.196 219.957 873.848 219.549 874.698 219.549H986.25C987.1 219.549 987.682 219.957 987.531 220.457C987.348 220.762 987.082 221.009 986.765 221.17C986.448 221.331 986.092 221.399 985.738 221.366H874.756C873.906 221.366 873.208 220.958 873.196 220.457Z" fill="white"/>
<path d="M987.379 215.648H925.608C924.746 215.648 924.094 215.229 924.153 214.705C924.211 214.181 924.956 213.773 925.829 213.773H987.938C988.8 213.773 989.382 214.193 989.23 214.705C989.047 215.025 988.774 215.285 988.445 215.452C988.117 215.62 987.746 215.688 987.379 215.648Z" fill="white"/>
<path opacity="0.5" d="M910.95 215.648H891.741C890.88 215.648 890.181 215.229 890.193 214.705C890.205 214.181 890.903 213.773 891.776 213.773H911.102C911.963 213.773 912.638 214.193 912.592 214.705C912.545 215.217 911.812 215.648 910.95 215.648Z" fill="white"/>
<path d="M951.045 209.733H863.917C863.044 209.733 862.311 209.302 862.276 208.766C862.241 208.231 862.928 207.8 863.812 207.8H951.405C952.279 207.8 952.919 208.231 952.814 208.766C952.709 209.302 951.929 209.733 951.045 209.733Z" fill="white"/>
<path opacity="0.5" d="M845.71 207.8H851.915C852.788 207.8 853.545 208.231 853.592 208.766C853.638 209.302 852.963 209.733 852.09 209.733H845.908C845.035 209.733 844.278 209.302 844.22 208.766C844.162 208.231 844.825 207.8 845.71 207.8Z" fill="white"/>
<path d="M963.653 202.618C963.537 203.177 962.722 203.62 961.825 203.62H879.727C878.831 203.62 878.109 203.177 878.097 202.618C878.086 202.059 878.807 201.617 879.692 201.617H962.244C963.141 201.617 963.769 202.071 963.653 202.618Z" fill="white"/>
<path d="M845.047 201.617H868.33C869.227 201.617 869.972 202.071 869.995 202.618C870.018 203.166 869.308 203.62 868.423 203.62H845.256C844.371 203.62 843.603 203.177 843.533 202.618C843.463 202.059 844.15 201.617 845.047 201.617Z" fill="white"/>
<path d="M844.359 195.236H933.931C934.839 195.236 935.515 195.702 935.433 196.272C935.352 196.843 934.56 197.308 933.652 197.308H844.58C843.684 197.308 842.892 196.843 842.834 196.272C842.776 195.702 843.451 195.236 844.359 195.236Z" fill="white"/>
<path d="M902.51 190.788C901.591 190.788 900.869 190.31 900.892 189.716C900.915 189.123 901.684 188.645 902.615 188.645H949.869C950.801 188.645 951.464 189.123 951.359 189.716C951.255 190.31 950.428 190.788 949.508 190.788H902.51Z" fill="white"/>
<path d="M843.661 188.622H884.558C885.49 188.622 886.235 189.099 886.235 189.693C886.235 190.287 885.49 190.788 884.558 190.788H843.893C842.962 190.788 842.17 190.31 842.101 189.716C842.031 189.123 842.729 188.622 843.661 188.622Z" fill="white"/>
<path d="M996.46 183.999H883.872C882.94 183.999 882.172 183.498 882.172 182.835C882.172 182.171 882.929 181.67 883.872 181.67H997.088C998.031 181.67 998.648 182.171 998.474 182.835C998.289 183.205 998 183.513 997.642 183.72C997.284 183.927 996.873 184.024 996.46 183.999V183.999Z" fill="white"/>
<path d="M998.416 176.978H899.46C898.505 176.978 897.749 176.465 897.772 175.813C897.795 175.161 898.587 174.649 899.553 174.649H999.184C1000.14 174.649 1000.77 175.161 1000.58 175.813C1000.38 176.206 1000.07 176.529 999.682 176.737C999.294 176.945 998.852 177.029 998.416 176.978V176.978Z" fill="white"/>
<path opacity="0.5" d="M1000.56 169.712H979.789C978.811 169.712 978.147 169.176 978.298 168.547C978.48 168.167 978.774 167.851 979.14 167.643C979.506 167.435 979.928 167.344 980.347 167.383H1001.21C1002.19 167.383 1002.83 167.918 1002.63 168.547C1002.43 168.92 1002.13 169.229 1001.77 169.435C1001.4 169.642 1000.98 169.738 1000.56 169.712V169.712Z" fill="white"/>
<path d="M965.294 169.712H889.122C888.156 169.712 887.364 169.176 887.376 168.547C887.387 167.918 888.167 167.383 889.145 167.383H965.818C966.796 167.383 967.483 167.918 967.343 168.547C967.169 168.933 966.876 169.254 966.508 169.463C966.14 169.672 965.715 169.759 965.294 169.712V169.712Z" fill="white"/>
<path d="M847.549 225.15H917.901C918.739 225.15 919.379 225.546 919.321 226.035C919.263 226.524 918.564 226.908 917.726 226.908H847.747C846.909 226.908 846.187 226.512 846.141 226.035C846.094 225.557 846.711 225.15 847.549 225.15Z" fill="white"/>
<path d="M848.131 230.576H956.214C957.029 230.576 957.623 230.96 957.518 231.426C957.413 231.892 956.68 232.276 955.853 232.276H848.318C847.491 232.276 846.781 231.892 846.734 231.426C846.688 230.96 847.305 230.576 848.131 230.576Z" fill="white"/>
<path d="M961.511 162.166H906.445C905.456 162.166 904.687 161.619 904.722 160.932C904.757 160.245 905.584 159.698 906.585 159.698H961.977C962.978 159.698 963.677 160.245 963.548 160.932C963.384 161.328 963.098 161.661 962.732 161.883C962.365 162.104 961.938 162.204 961.511 162.166Z" fill="white"/>
<path opacity="0.5" d="M890.892 162.166H840.832C839.842 162.166 838.981 161.619 838.899 160.932C838.818 160.245 839.563 159.698 840.564 159.698H890.915C891.904 159.698 892.708 160.245 892.696 160.932C892.684 161.619 891.881 162.166 890.892 162.166Z" fill="white"/>
<path opacity="0.5" d="M933.501 225.15C934.339 225.15 934.968 225.546 934.898 226.035C934.828 226.524 934.095 226.908 933.256 226.908H927.82C926.993 226.908 926.364 226.512 926.423 226.035C926.481 225.557 927.203 225.15 928.041 225.15H933.501Z" fill="white"/>
<path opacity="0.5" d="M866.782 220.457C866.782 220.958 866.141 221.366 865.291 221.366H857.887C857.037 221.366 856.316 220.958 856.281 220.457C856.246 219.957 856.898 219.549 857.748 219.549H865.187C866.048 219.549 866.758 219.957 866.782 220.457Z" fill="white"/>
<path opacity="0.5" d="M956.132 196.272C956.028 196.843 955.213 197.308 954.305 197.308H945.643C944.735 197.308 944.083 196.843 944.165 196.272C944.246 195.702 945.073 195.236 945.981 195.236H954.689C955.597 195.236 956.249 195.702 956.132 196.272Z" fill="white"/>
<path opacity="0.5" d="M983.153 201.617C984.05 201.617 984.655 202.071 984.504 202.618C984.324 202.951 984.051 203.224 983.718 203.402C983.384 203.58 983.006 203.656 982.629 203.62H975.726C974.829 203.62 974.224 203.177 974.352 202.618C974.528 202.285 974.799 202.012 975.131 201.834C975.463 201.656 975.84 201.58 976.215 201.617H983.153Z" fill="white"/>
<path opacity="0.5" d="M870.239 183.999C869.308 183.999 868.528 183.498 868.493 182.835C868.458 182.171 869.215 181.67 870.158 181.67H877.504C878.447 181.67 879.215 182.171 879.227 182.835C879.238 183.498 878.482 183.999 877.55 183.999H870.239Z" fill="white"/>
<path d="M770.236 148.146C770.399 148.536 770.46 148.96 770.414 149.38C770.367 149.8 770.214 150.201 769.969 150.545C769.724 150.889 769.396 151.164 769.015 151.346C768.633 151.527 768.212 151.608 767.791 151.581C766.774 151.522 765.796 151.165 764.981 150.554C764.165 149.943 763.547 149.106 763.204 148.146C763.032 147.756 762.963 147.328 763.004 146.903C763.044 146.479 763.193 146.072 763.436 145.721C763.679 145.371 764.008 145.088 764.391 144.901C764.775 144.714 765.2 144.629 765.625 144.653C766.655 144.706 767.646 145.068 768.468 145.691C769.29 146.314 769.906 147.169 770.236 148.146V148.146Z" fill="white"/>
<path d="M779.666 148.205C779.812 148.603 779.857 149.032 779.795 149.453C779.734 149.873 779.568 150.271 779.314 150.611C779.059 150.951 778.724 151.223 778.338 151.4C777.953 151.578 777.528 151.656 777.105 151.628C776.1 151.578 775.135 151.224 774.337 150.612C773.538 150.001 772.945 149.161 772.634 148.205C772.48 147.804 772.429 147.371 772.485 146.946C772.541 146.52 772.702 146.116 772.954 145.768C773.207 145.421 773.542 145.143 773.929 144.958C774.316 144.773 774.744 144.689 775.172 144.711C776.19 144.759 777.169 145.12 777.973 145.745C778.778 146.37 779.369 147.23 779.666 148.205V148.205Z" fill="white"/>
<path d="M789.246 148.146C789.377 148.558 789.405 148.996 789.327 149.42C789.249 149.845 789.069 150.245 788.801 150.584C788.534 150.923 788.187 151.191 787.792 151.365C787.396 151.539 786.965 151.613 786.534 151.582C785.539 151.536 784.583 151.181 783.8 150.565C783.017 149.949 782.447 149.103 782.168 148.146C782.031 147.736 781.996 147.299 782.067 146.872C782.137 146.445 782.311 146.042 782.572 145.698C782.834 145.354 783.176 145.079 783.568 144.896C783.96 144.714 784.391 144.631 784.823 144.653C785.837 144.683 786.815 145.039 787.612 145.668C788.409 146.297 788.982 147.166 789.246 148.146V148.146Z" fill="white"/>
<path d="M781.051 289.88H756.498C754.954 289.88 753.474 290.494 752.382 291.586C751.291 292.677 750.677 294.158 750.677 295.702V307.661C750.677 309.205 751.291 310.686 752.382 311.778C753.474 312.87 754.954 313.483 756.498 313.483H762.913L767.779 324.51L774.636 313.483H781.051C782.595 313.483 784.075 312.87 785.167 311.778C786.258 310.686 786.872 309.205 786.872 307.661V295.656C786.859 294.12 786.241 292.651 785.15 291.569C784.06 290.487 782.587 289.88 781.051 289.88V289.88Z" fill="white" stroke="#263238" stroke-linecap="round" stroke-linejoin="round"/>
<path d="M765.358 296.75C765.358 296.442 765.481 296.145 765.699 295.927C765.917 295.709 766.213 295.586 766.522 295.586C766.817 295.585 767.102 295.697 767.318 295.898C767.534 296.099 767.666 296.374 767.686 296.669C767.686 296.978 767.564 297.274 767.345 297.492C767.127 297.711 766.831 297.833 766.522 297.833C766.227 297.834 765.943 297.723 765.726 297.522C765.51 297.321 765.379 297.045 765.358 296.75ZM765.614 299.184H767.488V307.172H765.579L765.614 299.184Z" fill="#263238"/>
<path d="M771.994 298.742V299.219H774.194V300.721H772.063V307.149H770.236V300.721H768.874V299.219H770.236V298.707C770.206 298.329 770.26 297.949 770.394 297.594C770.528 297.239 770.739 296.918 771.012 296.655C771.284 296.391 771.612 296.191 771.971 296.068C772.33 295.946 772.711 295.905 773.088 295.947C773.685 295.917 774.277 296.067 774.788 296.378L774.264 297.787C773.959 297.577 773.598 297.463 773.228 297.461C772.401 297.461 771.994 297.915 771.994 298.742Z" fill="#263238"/>
<path d="M855.815 291.557H831.251C829.707 291.557 828.226 292.17 827.135 293.262C826.043 294.354 825.43 295.835 825.43 297.379V309.326C825.43 310.87 826.043 312.351 827.135 313.443C828.226 314.535 829.707 315.148 831.251 315.148H837.677L842.532 326.175L849.389 315.148H855.815C857.359 315.148 858.839 314.535 859.931 313.443C861.022 312.351 861.636 310.87 861.636 309.326V297.333C861.623 295.797 861.005 294.328 859.914 293.246C858.824 292.164 857.351 291.557 855.815 291.557Z" fill="white" stroke="#263238" stroke-linecap="round" stroke-linejoin="round"/>
<path d="M836.42 305.425H830.145C830.268 306.008 830.6 306.525 831.078 306.879C831.557 307.233 832.148 307.399 832.741 307.347C833.143 307.361 833.544 307.291 833.917 307.141C834.29 306.99 834.627 306.763 834.906 306.473L835.907 307.638C835.303 308.239 834.539 308.655 833.706 308.838C832.874 309.02 832.006 308.961 831.206 308.668C830.405 308.374 829.705 307.859 829.187 307.181C828.669 306.504 828.355 305.693 828.282 304.843C828.266 304.299 828.361 303.757 828.563 303.252C828.765 302.746 829.068 302.287 829.455 301.904C829.841 301.521 830.303 301.221 830.81 301.024C831.317 300.826 831.859 300.735 832.403 300.756C832.948 300.734 833.491 300.826 833.997 301.027C834.504 301.228 834.962 301.534 835.343 301.923C835.724 302.313 836.019 302.779 836.208 303.29C836.398 303.801 836.478 304.346 836.443 304.89C836.443 305.018 836.431 305.251 836.42 305.425ZM830.133 304.191H834.662C834.606 303.638 834.341 303.128 833.921 302.764C833.501 302.401 832.958 302.211 832.403 302.235C831.848 302.214 831.305 302.404 830.884 302.767C830.463 303.13 830.194 303.639 830.133 304.191V304.191Z" fill="#263238"/>
<path d="M838.236 297.729H840.087V308.826H838.213L838.236 297.729Z" fill="#263238"/>
<path d="M841.646 308.034L842.357 306.613C843.194 307.126 844.157 307.4 845.139 307.405C846.303 307.405 846.815 307.079 846.815 306.52C846.815 304.995 841.879 306.427 841.879 303.248C841.879 301.734 843.241 300.744 845.372 300.744C846.41 300.728 847.437 300.964 848.364 301.431L847.642 302.852C846.936 302.442 846.13 302.236 845.314 302.258C844.149 302.258 843.637 302.631 843.637 303.155C843.637 304.773 848.573 303.329 848.573 306.462C848.573 307.952 847.2 308.93 844.953 308.93C843.79 308.938 842.646 308.628 841.646 308.034Z" fill="#263238"/>
<path d="M857.736 305.425H851.461C851.584 306.008 851.916 306.525 852.395 306.879C852.873 307.233 853.465 307.399 854.057 307.347C854.459 307.361 854.86 307.291 855.233 307.141C855.606 306.99 855.943 306.763 856.223 306.473L857.224 307.638C856.619 308.239 855.856 308.655 855.023 308.838C854.19 309.02 853.322 308.961 852.522 308.668C851.721 308.374 851.021 307.859 850.503 307.181C849.986 306.504 849.672 305.693 849.598 304.843C849.582 304.299 849.678 303.757 849.88 303.252C850.081 302.746 850.385 302.287 850.771 301.904C851.158 301.521 851.619 301.221 852.126 301.024C852.633 300.826 853.176 300.735 853.72 300.756C854.264 300.734 854.807 300.826 855.314 301.027C855.82 301.228 856.279 301.534 856.66 301.923C857.04 302.313 857.335 302.779 857.525 303.29C857.714 303.801 857.794 304.346 857.759 304.89C857.759 305.018 857.748 305.251 857.736 305.425ZM851.45 304.191H855.978C855.922 303.638 855.657 303.128 855.237 302.764C854.818 302.401 854.275 302.211 853.72 302.235C853.164 302.214 852.621 302.404 852.2 302.767C851.779 303.13 851.511 303.639 851.45 304.191V304.191Z" fill="#263238"/>
<path d="M928.297 290.847H903.733C902.189 290.847 900.709 291.46 899.617 292.552C898.525 293.644 897.912 295.125 897.912 296.669V308.628C897.912 310.172 898.525 311.653 899.617 312.744C900.709 313.836 902.189 314.45 903.733 314.45H910.159L915.014 325.477L921.871 314.45H928.297C929.841 314.45 931.322 313.836 932.413 312.744C933.505 311.653 934.118 310.172 934.118 308.628V296.622C934.106 295.086 933.487 293.617 932.397 292.536C931.307 291.454 929.833 290.847 928.297 290.847V290.847Z" fill="white" stroke="#263238" stroke-linecap="round" stroke-linejoin="round"/>
<path d="M909.367 299.708V300.244H911.568V301.746H909.426V308.173H907.609V301.746H906.294V300.244H907.609V299.731C907.58 299.353 907.634 298.973 907.768 298.618C907.902 298.264 908.113 297.943 908.386 297.679C908.658 297.416 908.985 297.215 909.344 297.093C909.703 296.971 910.085 296.929 910.462 296.972C911.055 296.942 911.643 297.093 912.15 297.403L911.626 298.811C911.327 298.596 910.969 298.478 910.601 298.474C909.775 298.416 909.367 298.858 909.367 299.708Z" fill="#263238"/>
<path d="M912.045 304.121C912.013 303.272 912.235 302.432 912.683 301.71C913.132 300.987 913.786 300.416 914.562 300.068C915.338 299.721 916.2 299.614 917.037 299.76C917.874 299.907 918.649 300.3 919.261 300.891C919.873 301.481 920.294 302.241 920.471 303.072C920.647 303.904 920.571 304.769 920.253 305.557C919.934 306.345 919.386 307.02 918.681 307.495C917.976 307.969 917.144 308.222 916.294 308.22C915.741 308.252 915.186 308.17 914.666 307.977C914.146 307.784 913.672 307.486 913.272 307.101C912.873 306.716 912.558 306.253 912.347 305.74C912.136 305.227 912.033 304.676 912.045 304.121ZM918.669 304.121C918.638 303.669 918.475 303.236 918.2 302.875C917.926 302.514 917.552 302.241 917.125 302.089C916.698 301.938 916.235 301.914 915.795 302.022C915.355 302.129 914.955 302.363 914.646 302.694C914.336 303.025 914.13 303.44 914.053 303.887C913.975 304.333 914.03 304.793 914.21 305.209C914.39 305.625 914.687 305.98 915.066 306.229C915.445 306.479 915.888 306.612 916.341 306.613C916.661 306.614 916.978 306.549 917.271 306.422C917.565 306.295 917.829 306.108 918.048 305.874C918.266 305.641 918.434 305.364 918.541 305.063C918.648 304.761 918.692 304.441 918.669 304.121Z" fill="#263238"/>
<path d="M926.958 300.034V301.816C926.814 301.805 926.67 301.805 926.527 301.816C926.202 301.79 925.876 301.837 925.572 301.954C925.269 302.072 924.995 302.255 924.772 302.492C924.548 302.729 924.381 303.013 924.282 303.323C924.182 303.633 924.154 303.962 924.199 304.284V308.162H922.324V300.127H924.105V301.292C924.431 300.853 924.865 300.506 925.365 300.286C925.865 300.066 926.414 299.979 926.958 300.034V300.034Z" fill="#263238"/>
<path d="M999.731 289.88H975.132C973.588 289.88 972.108 290.494 971.016 291.586C969.924 292.677 969.311 294.158 969.311 295.702V307.661C969.311 309.205 969.924 310.686 971.016 311.778C972.108 312.87 973.588 313.483 975.132 313.483H981.558L986.413 324.51L993.27 313.483H999.696C1001.24 313.483 1002.72 312.87 1003.81 311.778C1004.9 310.686 1005.52 309.205 1005.52 307.661V295.656C1005.5 294.126 1004.89 292.662 1003.81 291.581C1002.73 290.501 1001.26 289.89 999.731 289.88V289.88Z" fill="white" stroke="#263238" stroke-linecap="round" stroke-linejoin="round"/>
<path d="M984.259 298.765H991.151V300.244H984.259V298.765ZM984.259 302.386H991.151V303.888H984.259V302.386Z" fill="#263238"/>
<path d="M818.491 276.059H793.927C792.383 276.059 790.902 276.672 789.811 277.764C788.719 278.856 788.106 280.337 788.106 281.881V293.828C788.106 295.372 788.719 296.853 789.811 297.945C790.902 299.036 792.383 299.65 793.927 299.65H800.353L805.208 310.677L812.065 299.65H818.491C820.035 299.65 821.515 299.036 822.607 297.945C823.699 296.853 824.312 295.372 824.312 293.828V281.834C824.3 280.298 823.681 278.829 822.591 277.747C821.5 276.666 820.027 276.059 818.491 276.059V276.059Z" fill="white" stroke="#263238" stroke-linecap="round" stroke-linejoin="round"/>
<path d="M800.435 281.019H803.997V282.521H802.297V293.525H803.997V295.027H800.435V281.019Z" fill="#263238"/>
<path d="M808.654 295.027V293.525H810.342V282.521H808.654V281.019H812.146V294.992L808.654 295.027Z" fill="#263238"/>
<path d="M891.509 274.836H866.945C865.401 274.836 863.921 275.449 862.829 276.541C861.737 277.633 861.124 279.114 861.124 280.658V292.558C861.124 294.103 861.737 295.584 862.829 296.675C863.921 297.767 865.401 298.381 866.945 298.381H873.371L878.237 309.408L885.095 298.381H891.509C893.053 298.381 894.534 297.767 895.625 296.675C896.717 295.584 897.33 294.103 897.33 292.558V280.611C897.318 279.075 896.699 277.607 895.609 276.525C894.518 275.443 893.045 274.836 891.509 274.836V274.836Z" fill="white" stroke="#263238" stroke-linecap="round" stroke-linejoin="round"/>
<path d="M874.232 286.748C874.826 286.946 875.117 287.354 875.117 288.273V291.126C875.09 291.28 875.1 291.438 875.145 291.587C875.19 291.736 875.27 291.873 875.377 291.986C875.485 292.099 875.617 292.186 875.764 292.239C875.911 292.291 876.068 292.309 876.223 292.291H876.537V293.793H875.78C875.443 293.843 875.1 293.815 874.775 293.712C874.451 293.608 874.155 293.431 873.91 293.195C873.664 292.959 873.477 292.669 873.361 292.349C873.245 292.029 873.205 291.686 873.242 291.348V288.273C873.242 287.773 872.986 287.551 872.567 287.551H872.078V286.026H872.567C872.986 286.026 873.242 285.805 873.242 285.304V282.218C873.204 281.88 873.245 281.538 873.36 281.218C873.476 280.898 873.664 280.609 873.91 280.374C874.155 280.138 874.452 279.963 874.776 279.861C875.101 279.758 875.444 279.732 875.78 279.785H876.537V281.287H876.176C876.021 281.266 875.862 281.282 875.714 281.334C875.567 281.386 875.433 281.472 875.325 281.586C875.217 281.7 875.138 281.837 875.093 281.988C875.049 282.138 875.041 282.297 875.07 282.451V285.292C875.117 286.154 874.826 286.562 874.232 286.748Z" fill="#263238"/>
<path d="M885.641 285.991V287.517H885.129C884.722 287.517 884.465 287.738 884.465 288.238V291.313C884.501 291.652 884.459 291.994 884.342 292.315C884.224 292.635 884.036 292.924 883.79 293.16C883.543 293.396 883.247 293.572 882.922 293.676C882.597 293.78 882.253 293.808 881.916 293.758H881.159V292.256H881.474C881.632 292.282 881.795 292.27 881.948 292.221C882.101 292.171 882.241 292.086 882.355 291.973C882.468 291.859 882.553 291.719 882.603 291.566C882.652 291.413 882.664 291.25 882.638 291.091V288.238C882.638 287.319 882.905 286.911 883.499 286.713C882.905 286.527 882.638 286.119 882.638 285.188V282.346C882.667 282.187 882.657 282.023 882.608 281.869C882.56 281.714 882.475 281.574 882.361 281.459C882.246 281.345 882.106 281.26 881.951 281.211C881.797 281.163 881.633 281.153 881.474 281.182H881.159V279.75H881.916C882.252 279.698 882.596 279.724 882.921 279.826C883.246 279.928 883.543 280.104 883.79 280.339C884.036 280.574 884.225 280.863 884.342 281.183C884.459 281.502 884.502 281.845 884.465 282.183V285.269C884.465 285.77 884.722 285.991 885.129 285.991H885.641Z" fill="#263238"/>
<path d="M963.758 272.414H939.194C937.65 272.414 936.17 273.027 935.078 274.119C933.986 275.211 933.373 276.692 933.373 278.236V290.183C933.373 291.727 933.986 293.208 935.078 294.3C936.17 295.392 937.65 296.005 939.194 296.005H945.609L950.475 307.032L957.332 296.005H963.758C965.302 296.005 966.783 295.392 967.874 294.3C968.966 293.208 969.579 291.727 969.579 290.183V278.189C969.567 276.653 968.948 275.184 967.858 274.103C966.767 273.021 965.294 272.414 963.758 272.414Z" fill="white" stroke="#263238" stroke-linecap="round" stroke-linejoin="round"/>
<path d="M950.498 281.252C950.481 281.081 950.501 280.908 950.555 280.744C950.609 280.581 950.697 280.43 950.812 280.303C950.928 280.175 951.069 280.073 951.226 280.004C951.384 279.934 951.554 279.898 951.726 279.898C951.898 279.898 952.069 279.934 952.226 280.004C952.383 280.073 952.524 280.175 952.64 280.303C952.756 280.43 952.844 280.581 952.898 280.744C952.952 280.908 952.971 281.081 952.954 281.252C952.971 281.423 952.952 281.596 952.898 281.76C952.844 281.923 952.756 282.074 952.64 282.201C952.524 282.329 952.383 282.43 952.226 282.5C952.069 282.57 951.898 282.606 951.726 282.606C951.554 282.606 951.384 282.57 951.226 282.5C951.069 282.43 950.928 282.329 950.812 282.201C950.697 282.074 950.609 281.923 950.555 281.76C950.501 281.596 950.481 281.423 950.498 281.252V281.252ZM952.954 286.958C952.923 287.403 952.804 287.838 952.605 288.238L951.837 290.358H950.673L951.278 288.029C951.062 287.937 950.879 287.783 950.752 287.586C950.625 287.388 950.561 287.157 950.568 286.923C950.568 286.6 950.696 286.29 950.924 286.062C951.152 285.834 951.462 285.706 951.784 285.706C952.107 285.706 952.417 285.834 952.645 286.062C952.873 286.29 953.001 286.6 953.001 286.923L952.954 286.958Z" fill="#263238"/>
<path d="M867.736 481.358H892.289C893.832 481.358 895.313 480.745 896.405 479.653C897.496 478.561 898.109 477.08 898.109 475.536V463.624C898.094 462.09 897.474 460.624 896.384 459.545C895.294 458.466 893.822 457.86 892.289 457.86H885.874L884 446.833L874.151 457.86H867.736C866.202 457.86 864.73 458.466 863.64 459.545C862.55 460.624 861.93 462.09 861.915 463.624V475.583C861.927 477.119 862.546 478.588 863.636 479.67C864.727 480.751 866.2 481.359 867.736 481.358V481.358Z" fill="white" stroke="#263238" stroke-linecap="round" stroke-linejoin="round"/>
<path d="M876.363 467.152L871.205 469.085L876.363 471.018V472.579L869.471 469.901V468.27L876.363 465.592V467.152Z" fill="#263238"/>
<path d="M881.812 461.715H883.476L878.505 475.816H876.875L881.812 461.715Z" fill="#263238"/>
<path d="M890.729 468.27V469.889L883.837 472.567V471.007L888.983 469.085L883.825 467.164V465.592L890.729 468.27Z" fill="#263238"/>
<path d="M711.595 394.318H736.148C737.692 394.318 739.172 393.704 740.264 392.612C741.356 391.521 741.969 390.04 741.969 388.495V376.595C741.969 375.051 741.356 373.57 740.264 372.478C739.172 371.386 737.692 370.773 736.148 370.773H729.733L731.13 359.746L718.01 370.773H711.595C710.052 370.773 708.571 371.386 707.479 372.478C706.388 373.57 705.774 375.051 705.774 376.595V388.542C705.787 390.078 706.405 391.547 707.496 392.629C708.586 393.711 710.06 394.318 711.595 394.318V394.318Z" fill="white" stroke="#263238" stroke-linecap="round" stroke-linejoin="round"/>
<path d="M718.872 386.737C718.872 386.428 718.995 386.132 719.213 385.914C719.431 385.696 719.727 385.573 720.036 385.573C720.345 385.573 720.641 385.696 720.859 385.914C721.078 386.132 721.2 386.428 721.2 386.737C721.2 387.046 721.078 387.342 720.859 387.561C720.641 387.779 720.345 387.902 720.036 387.902C719.727 387.902 719.431 387.779 719.213 387.561C718.995 387.342 718.872 387.046 718.872 386.737ZM719.012 377.329H721.224L720.851 384.315H719.338L719.012 377.329Z" fill="#263238"/>
<path d="M723.121 380.007H730.013V381.509H723.121V380.007ZM723.121 383.628H730.013V385.13H723.121V383.628Z" fill="#263238"/>
<defs>
<filter id="filter0_d_36326_30" x="0" y="-596" width="2009" height="2009" filterUnits="userSpaceOnUse" color-interpolation-filters="sRGB">
<feFlood flood-opacity="0" result="BackgroundImageFix"/>
<feColorMatrix in="SourceAlpha" type="matrix" values="0 0 0 0 0 0 0 0 0 0 0 0 0 0 0 0 0 0 127 0" result="hardAlpha"/>
<feMorphology radius="91" operator="erode" in="SourceAlpha" result="effect1_dropShadow_36326_30"/>
<feOffset dx="130" dy="70"/>
<feGaussianBlur stdDeviation="121.5"/>
<feColorMatrix type="matrix" values="0 0 0 0 0 0 0 0 0 0 0 0 0 0 0 0 0 0 0.05 0"/>
<feBlend mode="normal" in2="BackgroundImageFix" result="effect1_dropShadow_36326_30"/>
<feBlend mode="normal" in="SourceGraphic" in2="effect1_dropShadow_36326_30" result="shape"/>
</filter>
<filter id="filter1_bd_36326_30" x="156.411" y="-349.588" width="1436.17" height="1436.18" filterUnits="userSpaceOnUse" color-interpolation-filters="sRGB">
<feFlood flood-opacity="0" result="BackgroundImageFix"/>
<feGaussianBlur in="BackgroundImageFix" stdDeviation="30"/>
<feComposite in2="SourceAlpha" operator="in" result="effect1_backgroundBlur_36326_30"/>
<feColorMatrix in="SourceAlpha" type="matrix" values="0 0 0 0 0 0 0 0 0 0 0 0 0 0 0 0 0 0 127 0" result="hardAlpha"/>
<feOffset dy="30"/>
<feGaussianBlur stdDeviation="50"/>
<feColorMatrix type="matrix" values="0 0 0 0 0 0 0 0 0 0.507158 0 0 0 0 0.666667 0 0 0 0.06 0"/>
<feBlend mode="normal" in2="effect1_backgroundBlur_36326_30" result="effect2_dropShadow_36326_30"/>
<feBlend mode="normal" in="SourceGraphic" in2="effect2_dropShadow_36326_30" result="shape"/>
</filter>
<filter id="filter2_bd_36326_30" x="320.701" y="-185.299" width="1107.6" height="1107.6" filterUnits="userSpaceOnUse" color-interpolation-filters="sRGB">
<feFlood flood-opacity="0" result="BackgroundImageFix"/>
<feGaussianBlur in="BackgroundImageFix" stdDeviation="30"/>
<feComposite in2="SourceAlpha" operator="in" result="effect1_backgroundBlur_36326_30"/>
<feColorMatrix in="SourceAlpha" type="matrix" values="0 0 0 0 0 0 0 0 0 0 0 0 0 0 0 0 0 0 127 0" result="hardAlpha"/>
<feOffset dy="30"/>
<feGaussianBlur stdDeviation="50"/>
<feColorMatrix type="matrix" values="0 0 0 0 0 0 0 0 0 0.507158 0 0 0 0 0.666667 0 0 0 0.06 0"/>
<feBlend mode="normal" in2="effect1_backgroundBlur_36326_30" result="effect2_dropShadow_36326_30"/>
<feBlend mode="normal" in="SourceGraphic" in2="effect2_dropShadow_36326_30" result="shape"/>
</filter>
<filter id="filter3_bd_36326_30" x="460.948" y="-45.0517" width="827.104" height="827.103" filterUnits="userSpaceOnUse" color-interpolation-filters="sRGB">
<feFlood flood-opacity="0" result="BackgroundImageFix"/>
<feGaussianBlur in="BackgroundImageFix" stdDeviation="30"/>
<feComposite in2="SourceAlpha" operator="in" result="effect1_backgroundBlur_36326_30"/>
<feColorMatrix in="SourceAlpha" type="matrix" values="0 0 0 0 0 0 0 0 0 0 0 0 0 0 0 0 0 0 127 0" result="hardAlpha"/>
<feOffset dy="30"/>
<feGaussianBlur stdDeviation="50"/>
<feColorMatrix type="matrix" values="0 0 0 0 0 0 0 0 0 0.507158 0 0 0 0 0.666667 0 0 0 0.06 0"/>
<feBlend mode="normal" in2="effect1_backgroundBlur_36326_30" result="effect2_dropShadow_36326_30"/>
<feBlend mode="normal" in="SourceGraphic" in2="effect2_dropShadow_36326_30" result="shape"/>
</filter>
<filter id="filter4_bd_36326_30" x="574.808" y="68.808" width="599.384" height="599.384" filterUnits="userSpaceOnUse" color-interpolation-filters="sRGB">
<feFlood flood-opacity="0" result="BackgroundImageFix"/>
<feGaussianBlur in="BackgroundImageFix" stdDeviation="30"/>
<feComposite in2="SourceAlpha" operator="in" result="effect1_backgroundBlur_36326_30"/>
<feColorMatrix in="SourceAlpha" type="matrix" values="0 0 0 0 0 0 0 0 0 0 0 0 0 0 0 0 0 0 127 0" result="hardAlpha"/>
<feOffset dy="30"/>
<feGaussianBlur stdDeviation="50"/>
<feColorMatrix type="matrix" values="0 0 0 0 0 0 0 0 0 0.507158 0 0 0 0 0.666667 0 0 0 0.06 0"/>
<feBlend mode="normal" in2="effect1_backgroundBlur_36326_30" result="effect2_dropShadow_36326_30"/>
<feBlend mode="normal" in="SourceGraphic" in2="effect2_dropShadow_36326_30" result="shape"/>
</filter>
<linearGradient id="paint0_linear_36326_30" x1="1570.63" y1="-2520.16" x2="-104.498" y2="-2236.11" gradientUnits="userSpaceOnUse">
<stop stop-color="white"/>
<stop offset="1" stop-color="white" stop-opacity="0"/>
</linearGradient>
<linearGradient id="paint1_linear_36326_30" x1="1171.84" y1="-611.355" x2="1816.39" y2="85.9647" gradientUnits="userSpaceOnUse">
<stop stop-color="white"/>
<stop offset="1" stop-color="white" stop-opacity="0"/>
</linearGradient>
<linearGradient id="paint2_linear_36326_30" x1="1385.6" y1="-1760.32" x2="155.723" y2="-1551.77" gradientUnits="userSpaceOnUse">
<stop stop-color="white"/>
<stop offset="1" stop-color="white" stop-opacity="0"/>
</linearGradient>
<linearGradient id="paint3_linear_36326_30" x1="1092.8" y1="-358.882" x2="1566.04" y2="153.089" gradientUnits="userSpaceOnUse">
<stop stop-color="white"/>
<stop offset="1" stop-color="white" stop-opacity="0"/>
</linearGradient>
<linearGradient id="paint4_linear_36326_30" x1="1227.64" y1="-1111.68" x2="377.861" y2="-967.582" gradientUnits="userSpaceOnUse">
<stop stop-color="white"/>
<stop offset="1" stop-color="white" stop-opacity="0"/>
</linearGradient>
<linearGradient id="paint5_linear_36326_30" x1="1025.34" y1="-143.355" x2="1352.32" y2="210.391" gradientUnits="userSpaceOnUse">
<stop stop-color="white"/>
<stop offset="1" stop-color="white" stop-opacity="0"/>
</linearGradient>
<linearGradient id="paint6_linear_36326_30" x1="1099.41" y1="-585.075" x2="558.205" y2="-493.306" gradientUnits="userSpaceOnUse">
<stop stop-color="white"/>
<stop offset="1" stop-color="white" stop-opacity="0"/>
</linearGradient>
<linearGradient id="paint7_linear_36326_30" x1="970.563" y1="31.6204" x2="1178.81" y2="256.911" gradientUnits="userSpaceOnUse">
<stop stop-color="white"/>
<stop offset="1" stop-color="white" stop-opacity="0"/>
</linearGradient>
</defs>
</svg>
