<svg width="258" height="38" viewBox="0 0 258 38" fill="none" xmlns="http://www.w3.org/2000/svg">
<path fill-rule="evenodd" clip-rule="evenodd" d="M31.8614 15.8645V30.9489C32.0149 32.2992 33.2977 35 37.2016 35H42.8179V31.9617H37.2016C36.4036 31.9617 34.8077 31.5197 34.8077 29.7519V15.8645H41.4367V12.5499H34.8077V7.01025H31.8614V12.5499H27.8101V15.8645H31.8614Z" fill="#22253B"/>
<path fill-rule="evenodd" clip-rule="evenodd" d="M76.2008 15.8645V30.9489C76.3542 32.2992 77.6371 35 81.5409 35H87.1573V31.9617H81.5409C80.743 31.9617 79.1471 31.5197 79.1471 29.7519V15.8645H85.776V12.5499H79.1471V7.01025H76.2008V12.5499H72.1494V15.8645H76.2008Z" fill="#22253B"/>
<path fill-rule="evenodd" clip-rule="evenodd" d="M0 3H3.75452L12.4288 18.1475L21.2736 3H25.1164L14.112 21.9018H14.1137V34.9997H10.3655V21.9021H10.3573L0 3Z" fill="#38BFF2"/>
<path fill-rule="evenodd" clip-rule="evenodd" d="M44.3398 3H48.0944L56.7686 18.1475L65.6134 3H69.4563L58.4518 21.9018H58.454V34.9997H54.7058V21.9021H54.6971L44.3398 3Z" fill="#F15525"/>
<path d="M118.957 3.8V13.944H114.317V3.8H113.197V13.944H108.557V3.8H107.437V15H120.077V3.8H118.957ZM128.944 15L124.656 10.84L128.784 7H127.344L123.536 10.536V7H122.48V15H123.536V11.144L127.536 15H128.944ZM133.318 15.192C135.654 15.192 137.526 13.368 137.526 11C137.526 8.632 135.654 6.808 133.318 6.808C130.982 6.808 129.11 8.632 129.11 11C129.11 13.368 130.982 15.192 133.318 15.192ZM133.318 14.168C131.542 14.168 130.166 12.776 130.166 11C130.166 9.224 131.542 7.832 133.318 7.832C135.094 7.832 136.47 9.224 136.47 11C136.47 12.776 135.094 14.168 133.318 14.168ZM145.54 7H139.812V11.592C139.812 13.624 139.156 14.12 138.02 14.008V15C139.62 15.112 140.868 14.44 140.868 11.592V8.024H144.484V15H145.54V7ZM154.657 7V8.568C153.985 7.496 152.849 6.808 151.425 6.808C149.169 6.808 147.297 8.632 147.297 11C147.297 13.368 149.169 15.192 151.425 15.192C152.849 15.192 153.985 14.504 154.657 13.432V15H155.713V7H154.657ZM151.505 14.168C149.729 14.168 148.353 12.776 148.353 11C148.353 9.224 149.729 7.832 151.505 7.832C153.281 7.832 154.657 9.224 154.657 11C154.657 12.776 153.281 14.168 151.505 14.168ZM113.997 26H107.277V34H108.333V27.024H112.941V34H113.997V26ZM120.518 25.808C119.094 25.808 117.958 26.496 117.286 27.568V26H116.23V37.2H117.286V32.432C117.958 33.504 119.094 34.192 120.518 34.192C122.774 34.192 124.646 32.368 124.646 30C124.646 27.632 122.774 25.808 120.518 25.808ZM120.438 33.168C118.662 33.168 117.286 31.776 117.286 30C117.286 28.224 118.662 26.832 120.438 26.832C122.214 26.832 123.59 28.224 123.59 30C123.59 31.776 122.214 33.168 120.438 33.168ZM130.13 34.192C132.466 34.192 134.338 32.368 134.338 30C134.338 27.632 132.466 25.808 130.13 25.808C127.794 25.808 125.922 27.632 125.922 30C125.922 32.368 127.794 34.192 130.13 34.192ZM130.13 33.168C128.354 33.168 126.978 31.776 126.978 30C126.978 28.224 128.354 26.832 130.13 26.832C131.906 26.832 133.282 28.224 133.282 30C133.282 31.776 131.906 33.168 130.13 33.168ZM141.225 26H136.105V34H137.161V27.024H141.225V26ZM146.8 25.808C145.376 25.808 144.24 26.496 143.568 27.568V26H142.512V37.2H143.568V32.432C144.24 33.504 145.376 34.192 146.8 34.192C149.056 34.192 150.928 32.368 150.928 30C150.928 27.632 149.056 25.808 146.8 25.808ZM146.72 33.168C144.944 33.168 143.568 31.776 143.568 30C143.568 28.224 144.944 26.832 146.72 26.832C148.496 26.832 149.872 28.224 149.872 30C149.872 31.776 148.496 33.168 146.72 33.168ZM159.563 26V27.568C158.891 26.496 157.755 25.808 156.331 25.808C154.075 25.808 152.203 27.632 152.203 30C152.203 32.368 154.075 34.192 156.331 34.192C157.755 34.192 158.891 33.504 159.563 32.432V34H160.619V26H159.563ZM156.411 33.168C154.635 33.168 153.259 31.776 153.259 30C153.259 28.224 154.635 26.832 156.411 26.832C158.187 26.832 159.563 28.224 159.563 30C159.563 31.776 158.187 33.168 156.411 33.168ZM170.695 26H169.479L166.775 30.384L164.071 26H162.855V34H163.911V27.616L166.711 32.16H166.839L169.639 27.616V34H170.695V26ZM180.773 26H179.557L176.853 30.384L174.149 26H172.933V34H173.989V27.616L176.789 32.16H176.917L179.717 27.616V34H180.773V26ZM188.836 26L184.068 32.16V26H183.012V34H183.908L188.676 27.84V34H189.732V26H188.836ZM196.253 25.808C194.829 25.808 193.693 26.496 193.021 27.568V26H191.965V37.2H193.021V32.432C193.693 33.504 194.829 34.192 196.253 34.192C198.509 34.192 200.381 32.368 200.381 30C200.381 27.632 198.509 25.808 196.253 25.808ZM196.173 33.168C194.397 33.168 193.021 31.776 193.021 30C193.021 28.224 194.397 26.832 196.173 26.832C197.949 26.832 199.325 28.224 199.325 30C199.325 31.776 197.949 33.168 196.173 33.168ZM205.865 34.192C208.201 34.192 210.073 32.368 210.073 30C210.073 27.632 208.201 25.808 205.865 25.808C203.529 25.808 201.657 27.632 201.657 30C201.657 32.368 203.529 34.192 205.865 34.192ZM205.865 33.168C204.089 33.168 202.713 31.776 202.713 30C202.713 28.224 204.089 26.832 205.865 26.832C207.641 26.832 209.017 28.224 209.017 30C209.017 31.776 207.641 33.168 205.865 33.168ZM216.928 29.888C217.552 29.52 217.856 28.912 217.856 28.144C217.856 26.928 217.008 26 215.408 26H211.84V34H215.728C217.424 34 218.24 32.992 218.24 31.76C218.24 30.896 217.792 30.208 216.928 29.888ZM215.408 27.024C216.32 27.024 216.8 27.472 216.8 28.208C216.8 29.008 216.336 29.456 215.408 29.456H212.896V27.024H215.408ZM215.728 32.976H212.896V30.48H215.728C216.672 30.48 217.184 30.96 217.184 31.696C217.184 32.496 216.688 32.976 215.728 32.976ZM226.72 26V27.568C226.048 26.496 224.912 25.808 223.488 25.808C221.232 25.808 219.36 27.632 219.36 30C219.36 32.368 221.232 34.192 223.488 34.192C224.912 34.192 226.048 33.504 226.72 32.432V34H227.776V26H226.72ZM223.568 33.168C221.792 33.168 220.416 31.776 220.416 30C220.416 28.224 221.792 26.832 223.568 26.832C225.344 26.832 226.72 28.224 226.72 30C226.72 31.776 225.344 33.168 223.568 33.168ZM235.676 26V29.488H231.068V26H230.012V34H231.068V30.512H235.676V34H236.732V26H235.676ZM244.789 26L240.021 32.16V26H238.965V34H239.861L244.629 27.84V34H245.685V26H244.789ZM253.678 26H250.43C248.974 26 247.758 27.008 247.758 28.48C247.758 29.792 248.718 30.704 249.966 30.896L247.438 34H248.782L251.246 30.928H252.622V34H253.678V26ZM250.43 29.936C249.566 29.936 248.814 29.392 248.814 28.48C248.814 27.568 249.566 27.024 250.43 27.024H252.622V29.936H250.43Z" fill="#8E8E8E"/>
</svg>
